<svg width="26" height="30" viewBox="0 0 26 30" fill="none" xmlns="http://www.w3.org/2000/svg">
<path fill-rule="evenodd" clip-rule="evenodd" d="M0 2.66667C0 1.95942 0.280951 1.28115 0.781048 0.781048C1.28115 0.280951 1.95942 0 2.66667 0H5.33333C5.81867 0 6.27467 0.129333 6.66667 0.357333C7.07204 0.123261 7.5319 2.05964e-05 8 0H10.6667C11.636 0 12.4853 0.517333 12.952 1.292C13.232 1.068 13.56 0.897333 13.928 0.798667L16.504 0.109333C16.8423 0.0185906 17.1951 -0.00462304 17.5424 0.0410185C17.8897 0.08666 18.2245 0.200263 18.5279 0.375338C18.8312 0.550413 19.0971 0.783531 19.3103 1.06138C19.5236 1.33923 19.68 1.65636 19.7707 1.99467L25.2907 22.6013C25.3814 22.9396 25.4046 23.2925 25.359 23.6397C25.3133 23.987 25.1997 24.3218 25.0247 24.6252C24.8496 24.9285 24.6165 25.1944 24.3386 25.4077C24.0608 25.6209 23.7436 25.7773 23.4053 25.868L20.8293 26.5573C20.491 26.6481 20.1382 26.6713 19.7909 26.6256C19.4437 26.58 19.1088 26.4664 18.8055 26.2913C18.5021 26.1163 18.2362 25.8831 18.023 25.6053C17.8097 25.3274 17.6533 25.0103 17.5627 24.672L13.3333 8.884V24C13.3333 24.7072 13.0524 25.3855 12.5523 25.8856C12.0522 26.3857 11.3739 26.6667 10.6667 26.6667H8C7.5319 26.6666 7.07204 26.5434 6.66667 26.3093C6.26129 26.5434 5.80144 26.6666 5.33333 26.6667H2.66667C1.95942 26.6667 1.28115 26.3857 0.781048 25.8856C0.280951 25.3855 0 24.7072 0 24V2.66667ZM2.66667 2.66667H5.33333V24H2.66667V2.66667ZM10.6667 24H8V2.66667H10.6667V24ZM14.6187 3.37467L17.1933 2.68533L22.716 23.292L20.14 23.9813L14.6187 3.37467Z" fill="#57824C"/>
</svg>
