<svg width="32" height="32" viewBox="0 0 32 32" fill="none" xmlns="http://www.w3.org/2000/svg">
<path d="M25.3332 5.33335H22.6665V4.00002C22.6665 3.6464 22.526 3.30726 22.276 3.05721C22.0259 2.80716 21.6868 2.66669 21.3332 2.66669C20.9795 2.66669 20.6404 2.80716 20.3904 3.05721C20.1403 3.30726 19.9998 3.6464 19.9998 4.00002V5.33335H11.9998V4.00002C11.9998 3.6464 11.8594 3.30726 11.6093 3.05721C11.3593 2.80716 11.0201 2.66669 10.6665 2.66669C10.3129 2.66669 9.97374 2.80716 9.72369 3.05721C9.47365 3.30726 9.33317 3.6464 9.33317 4.00002V5.33335H6.6665C5.60564 5.33335 4.58822 5.75478 3.83808 6.50493C3.08793 7.25507 2.6665 8.27249 2.6665 9.33335V25.3334C2.6665 26.3942 3.08793 27.4116 3.83808 28.1618C4.58822 28.9119 5.60564 29.3334 6.6665 29.3334H25.3332C26.394 29.3334 27.4115 28.9119 28.1616 28.1618C28.9117 27.4116 29.3332 26.3942 29.3332 25.3334V9.33335C29.3332 8.27249 28.9117 7.25507 28.1616 6.50493C27.4115 5.75478 26.394 5.33335 25.3332 5.33335ZM26.6665 25.3334C26.6665 25.687 26.526 26.0261 26.276 26.2762C26.0259 26.5262 25.6868 26.6667 25.3332 26.6667H6.6665C6.31288 26.6667 5.97374 26.5262 5.7237 26.2762C5.47365 26.0261 5.33317 25.687 5.33317 25.3334V16H26.6665V25.3334ZM26.6665 13.3334H5.33317V9.33335C5.33317 8.97973 5.47365 8.64059 5.7237 8.39054C5.97374 8.1405 6.31288 8.00002 6.6665 8.00002H9.33317V9.33335C9.33317 9.68698 9.47365 10.0261 9.72369 10.2762C9.97374 10.5262 10.3129 10.6667 10.6665 10.6667C11.0201 10.6667 11.3593 10.5262 11.6093 10.2762C11.8594 10.0261 11.9998 9.68698 11.9998 9.33335V8.00002H19.9998V9.33335C19.9998 9.68698 20.1403 10.0261 20.3904 10.2762C20.6404 10.5262 20.9795 10.6667 21.3332 10.6667C21.6868 10.6667 22.0259 10.5262 22.276 10.2762C22.526 10.0261 22.6665 9.68698 22.6665 9.33335V8.00002H25.3332C25.6868 8.00002 26.0259 8.1405 26.276 8.39054C26.526 8.64059 26.6665 8.97973 26.6665 9.33335V13.3334Z" fill="#57824C"/>
</svg>
