<svg width="32" height="32" viewBox="0 0 32 32" fill="none" xmlns="http://www.w3.org/2000/svg">
<path d="M15.9998 26.1933C14.1985 24.9253 12.1132 24.1173 9.9265 23.8453C8.37564 23.5302 6.7956 23.3814 5.21317 23.4013C5.01069 23.4031 4.80987 23.3647 4.62229 23.2884C4.43472 23.2122 4.26411 23.0995 4.12031 22.957C3.97651 22.8144 3.86237 22.6448 3.78448 22.4579C3.70659 22.271 3.6665 22.0705 3.6665 21.868L3.6945 7.34398C3.69365 6.95428 3.84122 6.57887 4.10721 6.29406C4.3732 6.00925 4.73765 5.8364 5.1265 5.81065C6.73736 5.77862 8.3469 5.92259 9.9265 6.23998C12.1108 6.52179 14.1945 7.32782 15.9998 8.58931M15.9998 26.1933V8.58931M15.9998 26.1933C17.8012 24.9253 19.8865 24.1173 22.0732 23.8453C23.624 23.5302 25.2041 23.3814 26.7865 23.4013C26.989 23.4031 27.1898 23.3647 27.3774 23.2884C27.565 23.2122 27.7356 23.0995 27.8794 22.957C28.0232 22.8144 28.1373 22.6448 28.2152 22.4579C28.2931 22.271 28.3332 22.0705 28.3332 21.868L28.3038 7.34398C28.3047 6.95449 28.1573 6.57927 27.8916 6.29449C27.6259 6.00971 27.2618 5.83672 26.8732 5.81065C25.2623 5.77862 23.6528 5.92259 22.0732 6.23998C19.8889 6.52179 17.8052 7.32782 15.9998 8.58931" stroke="#57824C" stroke-width="3" stroke-linecap="round" stroke-linejoin="round"/>
</svg>
