<svg width="32" height="32" viewBox="0 0 32 32" fill="none" xmlns="http://www.w3.org/2000/svg">
<path d="M13.7022 22.0201C13.7089 21.8735 13.9502 21.8148 14.0222 21.9428C14.3609 22.5428 14.9369 23.4241 15.5902 23.8255C16.2435 24.2268 17.2915 24.3401 17.9795 24.3695C18.1262 24.3761 18.1835 24.6175 18.0555 24.6895C17.4555 25.0281 16.5755 25.6041 16.1742 26.2575C15.7729 26.9108 15.6595 27.9588 15.6302 28.6468C15.6235 28.7935 15.3809 28.8508 15.3102 28.7228C14.9715 28.1228 14.3955 27.2428 13.7409 26.8415C13.0875 26.4401 12.0395 26.3268 11.3529 26.2975C11.2062 26.2908 11.1475 26.0481 11.2755 25.9775C11.8755 25.6388 12.7569 25.0628 13.1582 24.4081C13.5582 23.7548 13.6729 22.7068 13.7022 22.0201Z" fill="#FF830A"/>
<path opacity="0.5" d="M24.6564 20.6866C24.6444 20.54 24.3897 20.4786 24.3124 20.604C24.083 20.9813 23.7524 21.4346 23.383 21.6613C23.0137 21.888 22.4604 21.976 22.0204 22.0106C21.8737 22.0213 21.8124 22.2773 21.9377 22.3533C22.3137 22.5826 22.7684 22.9133 22.995 23.2826C23.2217 23.652 23.3097 24.2066 23.3444 24.6466C23.355 24.7933 23.611 24.8533 23.687 24.728C23.9164 24.352 24.247 23.8973 24.6164 23.672C24.9857 23.4466 25.5404 23.356 25.9804 23.3226C26.127 23.3106 26.187 23.056 26.0617 22.9786C25.6857 22.7493 25.231 22.4186 25.0057 22.0493C24.7804 21.68 24.6897 21.1266 24.6564 20.6866Z" fill="#FF830A"/>
<path d="M19.6039 5.3361L19.2812 4.92811C18.0319 3.35077 17.4079 2.56144 16.6812 2.67744C15.9559 2.79477 15.6079 3.73877 14.9132 5.62811L14.7332 6.1161C14.5359 6.65344 14.4372 6.92144 14.2479 7.11877C14.0585 7.31611 13.7999 7.41877 13.2825 7.62544L12.8119 7.81344L12.4825 7.94677C10.8825 8.58677 10.0772 8.95077 9.9732 9.65744C9.86387 10.4108 10.6265 11.0561 12.1519 12.3454L12.5465 12.6788C12.9812 13.0454 13.1972 13.2294 13.3212 13.4788C13.4465 13.7281 13.4639 14.0161 13.4985 14.5921L13.5305 15.1161C13.6559 17.1428 13.7172 18.1561 14.3772 18.5054C15.0359 18.8548 15.8545 18.3094 17.4919 17.2174L17.9159 16.9348C18.3812 16.6241 18.6132 16.4681 18.8799 16.4268C19.1465 16.3854 19.4145 16.4588 19.9545 16.6081L20.4439 16.7441C22.3412 17.2694 23.2892 17.5321 23.8052 16.9948C24.3225 16.4574 24.0652 15.4748 23.5519 13.5108L23.4185 13.0028C23.2732 12.4441 23.1999 12.1654 23.2399 11.8894C23.2799 11.6134 23.4292 11.3708 23.7279 10.8868L23.9985 10.4468C25.0452 8.74544 25.5692 7.89477 25.2305 7.2121C24.8905 6.5321 23.9132 6.46944 21.9585 6.34811L21.4519 6.3161C20.8972 6.28144 20.6199 6.26411 20.3785 6.13611C20.1372 6.00811 19.9599 5.7841 19.6052 5.3361" fill="#FF830A"/>
<path opacity="0.5" d="M11.7798 17.768C8.93051 19.16 6.55851 21.3653 5.66385 24C4.66118 17.724 6.05318 13.6706 8.28385 11.1506C8.47585 11.544 8.72651 11.8693 8.95051 12.124C9.41718 12.652 10.0865 13.2173 10.7665 13.792L11.2558 14.2053L11.4825 14.3986C11.4892 14.484 11.4958 14.5853 11.5025 14.7146L11.5425 15.3613C11.5958 16.2346 11.6492 17.0866 11.7798 17.768Z" fill="#FF830A"/>
</svg>
