<svg width="23" height="23" viewBox="0 0 23 23" fill="none" xmlns="http://www.w3.org/2000/svg">
<path fill-rule="evenodd" clip-rule="evenodd" d="M0 11.375C0 5.09276 5.09276 0 11.375 0C17.6572 0 22.75 5.09276 22.75 11.375C22.75 17.6572 17.6572 22.75 11.375 22.75C5.09276 22.75 0 17.6572 0 11.375Z" fill="black"/>
<path fill-rule="evenodd" clip-rule="evenodd" d="M16.1156 7.46446C16.6377 7.60772 17.0488 8.02984 17.1884 8.56589C17.4419 9.53742 17.4419 11.5645 17.4419 11.5645C17.4419 11.5645 17.4419 13.5915 17.1884 14.5631C17.0488 15.0992 16.6377 15.5213 16.1156 15.6646C15.1695 15.9249 11.3753 15.9249 11.3753 15.9249C11.3753 15.9249 7.58104 15.9249 6.63485 15.6646C6.11277 15.5213 5.70162 15.0992 5.56208 14.5631C5.30859 13.5915 5.30859 11.5645 5.30859 11.5645C5.30859 11.5645 5.30859 9.53742 5.56208 8.56589C5.70162 8.02984 6.11277 7.60772 6.63485 7.46446C7.58104 7.2041 11.3753 7.2041 11.3753 7.2041C11.3753 7.2041 15.1695 7.2041 16.1156 7.46446ZM10.2378 9.85823V13.6499L13.2711 11.7541L10.2378 9.85823Z" fill="white"/>
</svg>
