<svg width="23" height="23" viewBox="0 0 23 23" fill="none" xmlns="http://www.w3.org/2000/svg">
<path fill-rule="evenodd" clip-rule="evenodd" d="M0 11.375C0 5.09276 5.09276 0 11.375 0C17.6572 0 22.75 5.09276 22.75 11.375C22.75 17.6572 17.6572 22.75 11.375 22.75C5.09276 22.75 0 17.6572 0 11.375Z" fill="black"/>
<path fill-rule="evenodd" clip-rule="evenodd" d="M11.3758 5.30811C9.72821 5.30811 9.52143 5.31531 8.87431 5.34476C8.22846 5.37433 7.78761 5.47658 7.40187 5.62661C7.00285 5.78156 6.66438 5.98884 6.32717 6.32618C5.98971 6.66339 5.78243 7.00186 5.62697 7.40075C5.47657 7.78662 5.37419 8.22759 5.34512 8.87319C5.31618 9.52031 5.30859 9.72721 5.30859 11.3748C5.30859 13.0225 5.31592 13.2286 5.34525 13.8757C5.37495 14.5216 5.4772 14.9624 5.6271 15.3482C5.78218 15.7472 5.98946 16.0857 6.32679 16.4229C6.66388 16.7603 7.00235 16.9681 7.40111 17.1231C7.78711 17.2731 8.22808 17.3753 8.87381 17.4049C9.52093 17.4344 9.72758 17.4416 11.3751 17.4416C13.0228 17.4416 13.229 17.4344 13.8761 17.4049C14.5219 17.3753 14.9633 17.2731 15.3493 17.1231C15.7482 16.9681 16.0861 16.7603 16.4232 16.4229C16.7607 16.0857 16.968 15.7472 17.1234 15.3483C17.2726 14.9624 17.3749 14.5214 17.4053 13.8758C17.4343 13.2287 17.4419 13.0225 17.4419 11.3748C17.4419 9.72721 17.4343 9.52044 17.4053 8.87332C17.3749 8.22747 17.2726 7.78662 17.1234 7.40087C16.968 7.00186 16.7607 6.66339 16.4232 6.32618C16.0858 5.98872 15.7483 5.78144 15.3489 5.62661C14.9622 5.47658 14.521 5.37433 13.8752 5.34476C13.2281 5.31531 13.0221 5.30811 11.3739 5.30811H11.3758ZM10.8316 6.40136C10.9931 6.40111 11.1733 6.40136 11.3758 6.40136C12.9956 6.40136 13.1876 6.40718 13.8273 6.43625C14.4188 6.46329 14.7398 6.56213 14.9537 6.64517C15.2368 6.75513 15.4386 6.88658 15.6508 7.09891C15.8632 7.31125 15.9946 7.51347 16.1048 7.79659C16.1879 8.01018 16.2868 8.33122 16.3137 8.92272C16.3428 9.56226 16.3491 9.75437 16.3491 11.3734C16.3491 12.9925 16.3428 13.1846 16.3137 13.8241C16.2867 14.4156 16.1879 14.7367 16.1048 14.9503C15.9949 15.2334 15.8632 15.435 15.6508 15.6472C15.4385 15.8595 15.2369 15.991 14.9537 16.1009C14.7401 16.1843 14.4188 16.2829 13.8273 16.31C13.1877 16.339 12.9956 16.3454 11.3758 16.3454C9.75586 16.3454 9.56387 16.339 8.92434 16.31C8.33283 16.2827 8.0118 16.1838 7.79782 16.1008C7.51471 15.9908 7.31248 15.8594 7.10015 15.6471C6.88781 15.4347 6.75637 15.233 6.64616 14.9498C6.56312 14.7362 6.46415 14.4151 6.43723 13.8236C6.40816 13.1841 6.40235 12.992 6.40235 11.3719C6.40235 9.75184 6.40816 9.56074 6.43723 8.92121C6.46428 8.3297 6.56312 8.00867 6.64616 7.79482C6.75611 7.5117 6.88781 7.30948 7.10015 7.09714C7.31248 6.88481 7.51471 6.75336 7.79782 6.64315C8.01168 6.55973 8.33283 6.46115 8.92434 6.43397C9.48399 6.40869 9.70088 6.40111 10.8316 6.39985V6.40136ZM14.6142 7.4087C14.2123 7.4087 13.8862 7.7344 13.8862 8.13645C13.8862 8.53837 14.2123 8.86446 14.6142 8.86446C15.0161 8.86446 15.3422 8.53837 15.3422 8.13645C15.3422 7.73453 15.0161 7.4087 14.6142 7.4087ZM11.3758 8.2593C9.65529 8.2593 8.26032 9.65427 8.26032 11.3748C8.26032 13.0954 9.65529 14.4897 11.3758 14.4897C13.0964 14.4897 14.4909 13.0954 14.4909 11.3748C14.4909 9.65427 13.0964 8.2593 11.3758 8.2593ZM11.3758 9.35258C12.4926 9.35258 13.3981 10.2579 13.3981 11.3748C13.3981 12.4916 12.4926 13.3971 11.3758 13.3971C10.2589 13.3971 9.35357 12.4916 9.35357 11.3748C9.35357 10.2579 10.2589 9.35258 11.3758 9.35258Z" fill="white"/>
</svg>
