<svg width="70" height="79" viewBox="0 0 70 79" fill="none" xmlns="http://www.w3.org/2000/svg">
<path d="M30.302 75.319C30.302 76.2637 28.0857 77.0267 23.653 77.608C19.2203 78.1893 14.7877 78.48 10.355 78.48C5.92233 78.48 3.08833 78.2257 1.853 77.717C0.617667 77.2083 0 76.409 0 75.319V5.232C0 1.744 10.464 0 31.392 0C44.036 0 52.3927 0.872 56.462 2.616C61.4033 4.65067 64.746 7.412 66.49 10.9C68.8153 15.4053 69.978 21.1823 69.978 28.231C69.978 37.8957 68.3067 44.908 64.964 49.268C62.566 52.4653 60.168 54.5363 57.77 55.481C55.372 56.4257 53.3737 57.116 51.775 57.552C50.249 57.9153 48.3233 58.206 45.998 58.424C42.8007 58.7147 38.4407 58.86 32.918 58.86L30.302 58.751V75.319ZM30.411 40.657H33.027C34.4077 40.657 35.4977 40.4753 36.297 40.112C37.0963 39.676 37.7867 38.586 38.368 36.842C39.022 35.0253 39.349 32.5183 39.349 29.321C39.349 26.051 38.9857 23.5803 38.259 21.909C37.605 20.165 36.9147 19.1477 36.188 18.857C35.534 18.4937 34.7347 18.312 33.79 18.312H30.411V40.657Z" fill="#57824C"/>
</svg>
